<?xml version="1.0" standalone="no"?>
<!DOCTYPE svg PUBLIC "-//W3C//DTD SVG 20010904//EN"
 "http://www.w3.org/TR/2001/REC-SVG-20010904/DTD/svg10.dtd">
<svg version="1.0" xmlns="http://www.w3.org/2000/svg"
 width="260.000000pt" height="260.000000pt" viewBox="0 0 260.000000 260.000000"
 preserveAspectRatio="xMidYMid meet">
<g transform="translate(0.000000,260.000000) scale(0.100000,-0.100000)"
fill="#000000" stroke="none">
<path d="M1048 2330 c-197 -31 -373 -113 -503 -233 -148 -136 -228 -277 -277
-490 -18 -77 -22 -125 -22 -287 -1 -212 12 -292 71 -438 82 -206 260 -395 471
-501 134 -68 310 -110 487 -117 460 -20 824 192 987 574 173 403 107 956 -144
1203 -141 139 -344 235 -588 278 -85 16 -409 23 -482 11z m484 -55 c189 -33
359 -106 498 -212 129 -100 216 -258 263 -473 27 -125 29 -365 4 -491 -92
-467 -388 -740 -858 -790 -85 -10 -137 -10 -223 -1 -612 64 -986 507 -928
1101 49 497 313 804 757 877 100 17 365 11 487 -11z"/>
<path d="M1155 1960 c-144 -32 -361 -165 -446 -273 -54 -67 -71 -104 -103
-215 -28 -102 -33 -194 -16 -317 21 -146 155 -345 279 -415 34 -19 90 -53 124
-75 l62 -39 180 -1 c217 0 262 9 410 79 168 81 257 174 340 356 29 62 30 71
30 205 -1 148 -15 242 -56 349 -41 112 -193 237 -369 305 -158 61 -291 74
-435 41z m254 -31 c192 -31 452 -191 510 -315 44 -92 65 -259 51 -406 -8 -82
-14 -104 -60 -197 -29 -57 -64 -115 -78 -129 -55 -50 -151 -108 -277 -167
l-130 -60 -135 1 c-118 0 -145 4 -215 27 -154 51 -263 131 -344 253 -72 107
-103 210 -104 339 0 121 12 173 64 284 98 210 361 374 609 380 25 0 74 -4 109
-10z"/>
<path d="M1145 1766 c-114 -28 -221 -116 -289 -238 -61 -110 -86 -287 -48
-355 31 -57 108 -167 137 -195 32 -32 50 -35 69 -10 83 102 133 160 223 255
98 103 254 299 298 374 25 43 13 77 -42 119 -74 56 -232 79 -348 50z m270 -65
c58 -21 85 -42 85 -66 0 -17 -141 -198 -213 -275 -34 -36 -100 -114 -145 -172
-46 -59 -102 -124 -124 -143 -38 -35 -40 -36 -59 -19 -42 38 -87 129 -103 207
-22 105 -12 164 44 258 65 109 113 156 205 201 78 38 83 39 165 34 50 -2 110
-13 145 -25z"/>
<path d="M1608 1523 c-88 -124 -359 -469 -440 -560 -62 -69 -70 -99 -35 -129
15 -13 52 -31 82 -40 48 -16 66 -16 133 -7 42 6 117 26 166 44 80 29 97 40
163 104 52 52 82 91 105 141 32 68 33 72 33 209 0 137 -1 141 -32 205 -41 84
-54 99 -90 106 -28 6 -33 1 -85 -73z m132 -60 c31 -72 34 -86 34 -183 1 -99
-1 -109 -33 -178 -42 -90 -102 -147 -226 -216 -86 -48 -90 -49 -174 -50 -66
-1 -96 4 -129 19 l-43 20 62 85 c34 47 103 135 153 195 51 61 140 172 200 248
59 75 111 137 115 137 4 0 22 -35 41 -77z"/>
</g>
</svg>
